<?xml version="1.0" encoding="UTF-8"?>
<svg id="Layer_2" data-name="Layer 2" xmlns="http://www.w3.org/2000/svg" viewBox="0 0 1016.86 156.84">
  <defs>
    <style>
      .cls-1 {
        stroke-width: 0px;
      }
    </style>
  </defs>
  <g id="Layer_1-2" data-name="Layer 1">
    <g>
      <path class="cls-1" d="M690.58,126.96v7.47h-14.94v-22.41h7.47v-7.47h22.41v-7.47h14.94v-14.94h7.47v-7.47h-14.94v7.47h-7.47v7.47h-7.47v-14.94h7.47v-7.47h7.47v-7.47h7.47v-14.94h7.47v-7.47h7.47v-7.47h7.47V7.47h-7.47V0h-44.81v7.47h-7.47v7.47h-14.94v7.47h-7.47v7.47h-7.47v7.47h-7.47v7.47h-7.47v7.47h-7.47v7.47h-7.47v7.47h-22.41v-7.47h-89.62v7.47h-14.94v7.47h-7.47v14.94h-7.47v44.81h7.47v7.47h7.47v7.47h59.75v-7.47h14.94v-7.47h14.94v-7.47h7.47v-7.47h7.47v-7.47h7.47v-7.47h7.47v-7.47h14.94v7.47h22.41v7.47h-7.47v37.34h7.47v7.47h29.87v-7.47h7.47v-7.47h7.47v-7.47h7.47v-7.47h-14.94ZM586.02,97.09v7.47h-7.47v7.47h-7.47v7.47h-14.94v7.47h-14.94v7.47h-37.34v-7.47h-7.47v-29.87h7.47v-7.47h7.47v-7.47h7.47v-7.47h59.75v7.47h7.47v7.47h7.47v7.47h-7.47ZM653.24,67.22v-7.47h7.47v-7.47h7.47v-7.47h7.47v-7.47h7.47v-7.47h7.47v-7.47h14.94v7.47h-7.47v7.47h-7.47v7.47h-7.47v14.94h-7.47v7.47h-7.47v7.47h-22.41v-7.47h7.47Z"/>
      <polygon class="cls-1" points="0 148.7 49.58 148.83 49.66 119.5 132.95 119.72 133.03 89.94 49.73 89.72 49.77 74.15 137.6 74.38 137.69 41.13 .28 40.77 0 148.7"/>
      <path class="cls-1" d="M292.91,51.43c-13.98-9.46-35.64-14.23-64.96-14.3-29.33-.07-51.01,4.58-65.04,13.97-14.03,9.39-21.07,24.06-21.13,44.01-.05,19.95,6.91,34.66,20.9,44.12,13.98,9.46,35.64,14.23,64.96,14.3,29.33.08,51-4.58,65.04-13.97,14.03-9.39,21.07-24.06,21.13-44.01.05-19.95-6.92-34.66-20.9-44.12ZM251.41,112.99c-5.4,4.07-13.29,6.09-23.67,6.06-10.38-.03-18.26-2.09-23.64-6.18-5.38-4.1-8.06-9.97-8.04-17.63.02-7.66,2.73-13.52,8.13-17.59,5.4-4.07,13.29-6.09,23.67-6.06,10.38.03,18.26,2.09,23.64,6.18,5.38,4.1,8.06,9.97,8.04,17.63-.02,7.66-2.73,13.52-8.13,17.59Z"/>
      <polygon class="cls-1" points="488.09 58.9 495.55 58.9 503.02 58.9 503.02 51.43 510.49 51.43 517.96 51.43 521.07 51.43 523.91 42.12 472.52 41.99 458 101.51 456.79 101.51 442.43 41.91 391.79 41.78 377.28 101.3 376.07 101.3 362.02 41.7 310.47 41.57 341.93 149.58 401.64 149.74 416.46 91.12 417.67 91.13 432.33 149.82 480.62 149.94 480.62 142.75 473.15 142.75 473.15 135.28 473.15 127.81 473.15 120.34 473.15 118.64 473.15 112.87 473.15 111.18 473.15 105.41 473.15 103.71 473.15 96.24 473.15 88.77 473.15 81.3 480.62 81.3 480.62 73.84 480.62 66.37 488.09 66.37 488.09 58.9"/>
      <path class="cls-1" d="M833.12,110.15c7.36-1.79,13.06-5.11,17.11-9.93,4.04-4.83,6.08-11.87,6.1-21.15.03-12.7-3.49-22.15-10.58-28.37-7.09-6.22-18.95-9.34-35.57-9.39l-66.46-.17v4.51h-7.47v7.47h-7.47v13.24h7.47v24.1h-7.47v14.94h-14.94v7.47h-14.2v5.77s6.73,0,6.73,0h7.47v24.1h-7.47v6.23l42.76.11.07-27.51,34.92.09,17.46,27.56,57.29.15-25.75-37.71v-1.51ZM790.39,93.11l-41.12-.11.05-17.84,41.12.11c7.05.02,10.57,3,10.56,8.95-.01,5.95-3.55,8.91-10.6,8.89Z"/>
      <path class="cls-1" d="M1012.23,59.37c-3.11-5.85-8.16-10.25-15.16-13.19-7-2.94-16.39-4.43-28.18-4.46l-105.21-.27-.28,107.93,49.58.13.07-28.12,55.63.14c11.79.03,21.19-1.38,28.2-4.24,7.01-2.85,12.09-7.17,15.22-12.96,3.14-5.79,4.72-13.21,4.74-22.28.02-9.27-1.52-16.83-4.63-22.69ZM959.55,90c-2.02,1.66-5,2.48-8.93,2.47l-37.49-.1.05-19.95,37.49.1c7.96.02,11.93,3.36,11.92,10.01,0,3.33-1.02,5.82-3.04,7.47Z"/>
    </g>
  </g>
</svg>